<mxfile host="app.diagrams.net" agent="Mozilla/5.0 (Windows NT 10.0; Win64; x64) AppleWebKit/537.36 (KHTML, like Gecko) Chrome/137.0.0.0 Safari/537.36" version="27.1.6">
  <diagram name="Page-1" id="bjuyhoJCbfsD0rETXw15">
    <mxGraphModel dx="868" dy="446" grid="1" gridSize="9" guides="1" tooltips="1" connect="1" arrows="1" fold="1" page="1" pageScale="1" pageWidth="850" pageHeight="1100" background="light-dark(#FFFFFF,#000000)" math="0" shadow="0">
      <root>
        <mxCell id="0" />
        <mxCell id="1" parent="0" />
        <mxCell id="Ydc_N-dXWBiX5gYQPDu7-1" value="&lt;div style=&quot;text-align: left&quot;&gt;&lt;span&gt;System&lt;/span&gt;&lt;/div&gt;" style="rounded=0;whiteSpace=wrap;html=1;shadow=0;glass=0;comic=1;strokeColor=#000000;labelPosition=center;verticalLabelPosition=middle;align=left;verticalAlign=top;absoluteArcSize=1;arcSize=50;fillColor=none;" vertex="1" parent="1">
          <mxGeometry x="225" y="153" width="450" height="333" as="geometry" />
        </mxCell>
        <mxCell id="Ydc_N-dXWBiX5gYQPDu7-2" value="Actor" style="shape=umlActor;verticalLabelPosition=bottom;labelBackgroundColor=#ffffff;verticalAlign=top;html=1;rounded=1;shadow=0;comic=1;strokeWidth=1;comic=1" vertex="1" parent="1">
          <mxGeometry x="108" y="225" width="30" height="60" as="geometry" />
        </mxCell>
        <mxCell id="Ydc_N-dXWBiX5gYQPDu7-3" value="&lt;font style=&quot;font-size: 10px;&quot;&gt;Choose dice Type&lt;/font&gt;&lt;div&gt;&lt;font style=&quot;font-size: 10px;&quot;&gt;and&lt;/font&gt;&lt;/div&gt;&lt;div&gt;&lt;font style=&quot;font-size: 10px;&quot;&gt;Roll count&lt;/font&gt;&lt;/div&gt;" style="ellipse;whiteSpace=wrap;html=1;rounded=1;shadow=0;strokeWidth=1;comic=1;" vertex="1" parent="1">
          <mxGeometry x="288" y="207" width="117" height="70" as="geometry" />
        </mxCell>
        <mxCell id="Ydc_N-dXWBiX5gYQPDu7-4" value="&lt;span style=&quot;font-size: 10px;&quot;&gt;Roll dice&lt;/span&gt;" style="ellipse;whiteSpace=wrap;html=1;rounded=1;shadow=0;strokeWidth=1;comic=1;" vertex="1" parent="1">
          <mxGeometry x="288" y="297" width="117" height="70" as="geometry" />
        </mxCell>
        <mxCell id="Ydc_N-dXWBiX5gYQPDu7-6" value="" style="rounded=0;html=1;jettySize=auto;orthogonalLoop=1;comic=1;" edge="1" parent="1" target="Ydc_N-dXWBiX5gYQPDu7-3">
          <mxGeometry relative="1" as="geometry">
            <mxPoint x="153" y="252" as="sourcePoint" />
            <mxPoint x="477" y="279" as="targetPoint" />
          </mxGeometry>
        </mxCell>
        <mxCell id="Ydc_N-dXWBiX5gYQPDu7-7" value="" style="rounded=0;html=1;jettySize=auto;orthogonalLoop=1;comic=1;entryX=0;entryY=0.5;entryDx=0;entryDy=0;" edge="1" parent="1" target="Ydc_N-dXWBiX5gYQPDu7-4">
          <mxGeometry relative="1" as="geometry">
            <mxPoint x="153" y="252" as="sourcePoint" />
            <mxPoint x="477" y="279" as="targetPoint" />
          </mxGeometry>
        </mxCell>
        <mxCell id="Ydc_N-dXWBiX5gYQPDu7-9" value="&lt;span style=&quot;font-size: 10px;&quot;&gt;Save roll results&lt;/span&gt;" style="ellipse;whiteSpace=wrap;html=1;rounded=1;shadow=0;strokeWidth=1;comic=1;" vertex="1" parent="1">
          <mxGeometry x="432" y="238.5" width="117" height="70" as="geometry" />
        </mxCell>
        <mxCell id="Ydc_N-dXWBiX5gYQPDu7-10" value="" style="rounded=0;html=1;jettySize=auto;orthogonalLoop=1;comic=1;dashed=1;dashPattern=8 8;exitX=1;exitY=0.5;exitDx=0;exitDy=0;entryX=0;entryY=1;entryDx=0;entryDy=0;" edge="1" parent="1" source="Ydc_N-dXWBiX5gYQPDu7-4" target="Ydc_N-dXWBiX5gYQPDu7-9">
          <mxGeometry relative="1" as="geometry">
            <mxPoint x="477" y="378" as="sourcePoint" />
            <mxPoint x="477" y="414" as="targetPoint" />
          </mxGeometry>
        </mxCell>
        <mxCell id="Ydc_N-dXWBiX5gYQPDu7-11" value="" style="rounded=0;html=1;jettySize=auto;orthogonalLoop=1;comic=1;entryX=0.5;entryY=0;entryDx=0;entryDy=0;exitX=0.5;exitY=1;exitDx=0;exitDy=0;" edge="1" parent="1" source="Ydc_N-dXWBiX5gYQPDu7-3" target="Ydc_N-dXWBiX5gYQPDu7-4">
          <mxGeometry relative="1" as="geometry">
            <mxPoint x="243" y="306" as="sourcePoint" />
            <mxPoint x="378" y="386" as="targetPoint" />
          </mxGeometry>
        </mxCell>
        <mxCell id="Ydc_N-dXWBiX5gYQPDu7-12" value="" style="rounded=0;html=1;jettySize=auto;orthogonalLoop=1;comic=1;dashed=1;dashPattern=8 8;exitX=0.5;exitY=1;exitDx=0;exitDy=0;entryX=0.5;entryY=0;entryDx=0;entryDy=0;" edge="1" parent="1" source="Ydc_N-dXWBiX5gYQPDu7-9" target="Ydc_N-dXWBiX5gYQPDu7-13">
          <mxGeometry relative="1" as="geometry">
            <mxPoint x="405" y="447.5" as="sourcePoint" />
            <mxPoint x="477" y="355.5" as="targetPoint" />
          </mxGeometry>
        </mxCell>
        <mxCell id="Ydc_N-dXWBiX5gYQPDu7-13" value="overall sum&amp;nbsp;&lt;div&gt;of values&lt;/div&gt;" style="ellipse;whiteSpace=wrap;html=1;rounded=1;shadow=0;strokeWidth=1;comic=1;" vertex="1" parent="1">
          <mxGeometry x="432" y="373.5" width="90" height="52" as="geometry" />
        </mxCell>
        <mxCell id="Ydc_N-dXWBiX5gYQPDu7-14" value="min/max&lt;div&gt;sum&lt;/div&gt;" style="ellipse;whiteSpace=wrap;html=1;rounded=1;shadow=0;strokeWidth=1;comic=1;" vertex="1" parent="1">
          <mxGeometry x="576" y="229.5" width="90" height="52" as="geometry" />
        </mxCell>
        <mxCell id="Ydc_N-dXWBiX5gYQPDu7-15" value="median" style="ellipse;whiteSpace=wrap;html=1;rounded=1;shadow=0;strokeWidth=1;comic=1;" vertex="1" parent="1">
          <mxGeometry x="567" y="312.5" width="90" height="52" as="geometry" />
        </mxCell>
        <mxCell id="Ydc_N-dXWBiX5gYQPDu7-16" value="average sum&lt;div&gt;each roll&lt;/div&gt;" style="ellipse;whiteSpace=wrap;html=1;rounded=1;shadow=0;strokeWidth=1;comic=1;" vertex="1" parent="1">
          <mxGeometry x="540" y="382.5" width="90" height="52" as="geometry" />
        </mxCell>
        <mxCell id="Ydc_N-dXWBiX5gYQPDu7-17" value="" style="rounded=0;html=1;jettySize=auto;orthogonalLoop=1;comic=1;dashed=1;dashPattern=8 8;exitX=1;exitY=1;exitDx=0;exitDy=0;entryX=0;entryY=0.5;entryDx=0;entryDy=0;" edge="1" parent="1" source="Ydc_N-dXWBiX5gYQPDu7-9" target="Ydc_N-dXWBiX5gYQPDu7-15">
          <mxGeometry relative="1" as="geometry">
            <mxPoint x="490" y="337.5" as="sourcePoint" />
            <mxPoint x="477" y="402.5" as="targetPoint" />
          </mxGeometry>
        </mxCell>
        <mxCell id="Ydc_N-dXWBiX5gYQPDu7-18" value="" style="rounded=0;html=1;jettySize=auto;orthogonalLoop=1;comic=1;dashed=1;dashPattern=8 8;exitX=0.687;exitY=1.029;exitDx=0;exitDy=0;entryX=0.075;entryY=0.213;entryDx=0;entryDy=0;exitPerimeter=0;entryPerimeter=0;" edge="1" parent="1" source="Ydc_N-dXWBiX5gYQPDu7-9" target="Ydc_N-dXWBiX5gYQPDu7-16">
          <mxGeometry relative="1" as="geometry">
            <mxPoint x="526" y="328.5" as="sourcePoint" />
            <mxPoint x="513" y="393.5" as="targetPoint" />
          </mxGeometry>
        </mxCell>
        <mxCell id="Ydc_N-dXWBiX5gYQPDu7-19" value="" style="rounded=0;html=1;jettySize=auto;orthogonalLoop=1;comic=1;dashed=1;dashPattern=8 8;exitX=1;exitY=0.5;exitDx=0;exitDy=0;entryX=0;entryY=0.5;entryDx=0;entryDy=0;" edge="1" parent="1" source="Ydc_N-dXWBiX5gYQPDu7-9" target="Ydc_N-dXWBiX5gYQPDu7-14">
          <mxGeometry relative="1" as="geometry">
            <mxPoint x="562" y="319.5" as="sourcePoint" />
            <mxPoint x="549" y="384.5" as="targetPoint" />
          </mxGeometry>
        </mxCell>
      </root>
    </mxGraphModel>
  </diagram>
</mxfile>
